<?xml version="1.0" standalone="no"?>
<!DOCTYPE svg PUBLIC "-//W3C//DTD SVG 20010904//EN"
 "http://www.w3.org/TR/2001/REC-SVG-20010904/DTD/svg10.dtd">
<svg version="1.0" xmlns="http://www.w3.org/2000/svg"
 width="64.000000pt" height="64.000000pt" viewBox="0 0 64.000000 64.000000"
 preserveAspectRatio="xMidYMid meet">

<g transform="translate(0.000000,64.000000) scale(0.100000,-0.100000)"
fill="#000000" stroke="none">
<path d="M40 570 c0 -49 1 -50 30 -50 17 0 30 5 30 10 0 6 5 10 10 10 6 0 10
-24 10 -53 0 -43 7 -64 40 -122 46 -77 58 -134 42 -197 -6 -24 -13 -65 -16
-93 l-6 -50 55 0 c37 0 55 4 55 13 0 6 5 12 10 12 6 0 10 -6 10 -12 0 -9 18
-13 55 -13 l55 0 -6 55 c-3 30 -10 68 -15 84 -13 42 -11 97 5 129 8 15 12 27
8 27 -19 -1 -30 -19 -36 -63 -7 -44 -9 -47 -37 -47 -29 0 -39 14 -16 23 9 4 8
8 -3 16 -19 13 -21 13 -40 0 -11 -8 -12 -12 -2 -16 22 -9 12 -23 -17 -23 -28
0 -30 3 -37 47 -4 28 -23 76 -45 114 -32 53 -39 75 -39 117 0 64 16 68 26 7
15 -102 111 -145 251 -113 47 11 53 16 53 38 0 35 11 70 21 70 5 0 9 -23 9
-51 0 -44 -4 -55 -31 -80 -20 -19 -26 -29 -16 -29 8 0 27 14 41 31 20 24 26
41 26 80 0 27 5 49 10 49 6 0 10 -4 10 -10 0 -5 14 -10 30 -10 29 0 30 1 30
50 0 28 -4 50 -10 50 -5 0 -10 -18 -10 -40 0 -22 -4 -40 -10 -40 -5 0 -10 18
-10 40 0 22 -4 40 -10 40 -5 0 -10 -4 -10 -10 0 -5 -20 -10 -45 -10 -25 0 -45
5 -45 10 0 6 -13 10 -30 10 -29 0 -30 -1 -30 -50 0 -49 1 -50 29 -50 16 0 32
6 34 13 3 6 6 -1 6 -18 1 -40 -9 -54 -50 -65 -54 -16 -59 -14 -52 20 3 18 1
30 -5 30 -6 0 -12 -10 -14 -21 -8 -56 -70 -48 -76 10 l-3 31 50 0 c36 0 51 4
51 13 0 24 -36 47 -73 47 l-37 0 0 45 c0 43 -1 45 -30 45 -16 0 -30 -4 -30
-10 0 -5 -16 -10 -35 -10 -19 0 -35 -4 -35 -10 0 -5 16 -10 35 -10 19 0 35 -4
35 -10 0 -5 -20 -10 -45 -10 -43 0 -45 1 -45 30 0 27 -3 30 -30 30 -29 0 -30
-1 -30 -50z m40 0 c0 -16 -4 -30 -10 -30 -5 0 -10 14 -10 30 0 17 5 30 10 30
6 0 10 -13 10 -30z m150 0 c0 -16 -4 -30 -10 -30 -5 0 -10 14 -10 30 0 17 5
30 10 30 6 0 10 -13 10 -30z m200 -50 c0 -16 -4 -30 -10 -30 -5 0 -10 14 -10
30 0 17 5 30 10 30 6 0 10 -13 10 -30z m-214 0 c23 0 24 -3 24 -56 l0 -57 -26
26 c-17 18 -27 40 -30 69 -2 24 -1 37 2 31 3 -7 17 -13 30 -13z m324 0 c0 -5
-20 -10 -45 -10 -25 0 -45 5 -45 10 0 6 20 10 45 10 25 0 45 -4 45 -10z m-227
-17 c-7 -2 -19 -2 -25 0 -7 3 -2 5 12 5 14 0 19 -2 13 -5z m71 -354 c18 -90
-4 -114 -52 -59 -17 19 -36 30 -54 30 -18 0 -29 6 -33 20 -10 32 3 40 69 40
63 0 64 0 70 -31z"/>
<path d="M280 420 c0 -5 9 -10 20 -10 11 0 20 5 20 10 0 6 -9 10 -20 10 -11 0
-20 -4 -20 -10z"/>
<path d="M240 350 c0 -10 53 -18 90 -12 52 7 33 20 -30 20 -33 0 -60 -4 -60
-8z"/>
<path d="M273 293 c-41 -8 -24 -21 27 -21 28 0 50 4 50 9 0 5 -6 9 -14 9 -8 0
-20 2 -28 4 -7 2 -23 1 -35 -1z"/>
</g>
</svg>
